<mxfile host="app.diagrams.net" modified="2023-04-07T05:57:03.107Z" agent="Mozilla/5.0 (Windows NT 10.0; Win64; x64) AppleWebKit/537.36 (KHTML, like Gecko) Chrome/111.0.0.0 Safari/537.36" version="21.1.1" etag="nfuy1fe_V0X-aB9vPG6D" type="github">
  <diagram name="Page-1" id="5-2WwivGrsNph0uuC5jh">
    <mxGraphModel>
      <root>
        <mxCell id="0" />
        <mxCell id="1" parent="0" />
      </root>
    </mxGraphModel>
  </diagram>
</mxfile>
